<?xml version="1.0" encoding="utf-8"?>
<svg width="512px" height="512px" viewBox="0 0 512 512" version="1.1" xmlns:xlink="http://www.w3.org/1999/xlink" xmlns="http://www.w3.org/2000/svg">
  <desc>Created with Lunacy</desc>
  <defs>
    <linearGradient x1="0.84586954" y1="0.04918903" x2="0.23770666" y2="0.9803387" id="gradient_1">
      <stop offset="0" stop-color="#3E4451" />
      <stop offset="1" stop-color="#0B0C0E" />
    </linearGradient>
    <linearGradient x1="0.9259541" y1="-3.961971E-08" x2="0" y2="1.0000001" id="gradient_2">
      <stop offset="0" stop-color="#FAE800" />
      <stop offset="0.261" stop-color="#FAE800" />
      <stop offset="0.639" stop-color="#FAE800" />
      <stop offset="1" stop-color="#FAE800" />
    </linearGradient>
    <filter filterUnits="userSpaceOnUse" color-interpolation-filters="sRGB" id="filter_1">
      <feFlood flood-opacity="0" result="BackgroundImageFix" />
      <feColorMatrix in="SourceAlpha" type="matrix" values="0 0 0 0 0 0 0 0 0 0 0 0 0 0 0 0 0 0 127 0" />
      <feOffset dx="0" dy="2" />
      <feGaussianBlur stdDeviation="2" />
      <feColorMatrix type="matrix" values="0 0 0 0 0.39215687 0 0 0 0 0.39215687 0 0 0 0 0.39215687 0 0 0 0.49803922 0" />
      <feBlend mode="normal" in2="BackgroundImageFix" result="effect0_dropShadow" />
      <feBlend mode="normal" in="SourceGraphic" in2="effect0_dropShadow" result="shape" />
    </filter>
    <path d="M255.999 0L256.001 0Q262.285 0 268.562 0.308362Q274.839 0.616724 281.093 1.2327Q287.347 1.84869 293.564 2.7708Q299.78 3.69292 305.944 4.91895Q312.108 6.14498 318.204 7.67197Q324.3 9.19896 330.314 11.0232Q336.327 12.8475 342.244 14.9647Q348.161 17.0818 353.968 19.4868Q359.774 21.8917 365.455 24.5786Q371.136 27.2656 376.678 30.228Q382.22 33.1905 387.611 36.4213Q393.001 39.6522 398.226 43.1436Q403.452 46.635 408.499 50.3787Q413.547 54.1223 418.405 58.1091Q423.263 62.0959 427.919 66.3162Q432.576 70.5366 437.02 74.9804Q441.463 79.4241 445.684 84.0806Q449.904 88.737 453.891 93.5949Q457.878 98.4529 461.621 103.501Q465.365 108.548 468.856 113.774Q472.348 118.999 475.579 124.389Q478.809 129.78 481.772 135.322Q484.734 140.864 487.421 146.545Q490.108 152.226 492.513 158.032Q494.918 163.838 497.035 169.756Q499.152 175.673 500.977 181.686Q502.801 187.7 504.328 193.796Q505.855 199.892 507.081 206.056Q508.307 212.22 509.229 218.436Q510.151 224.653 510.767 230.907Q511.383 237.161 511.692 243.438Q512 249.715 512 255.999L512 256.001Q512 262.285 511.692 268.562Q511.383 274.839 510.767 281.093Q510.151 287.347 509.229 293.564Q508.307 299.78 507.081 305.944Q505.855 312.108 504.328 318.204Q502.801 324.3 500.977 330.314Q499.152 336.327 497.035 342.244Q494.918 348.161 492.513 353.968Q490.108 359.774 487.421 365.455Q484.734 371.136 481.772 376.678Q478.809 382.22 475.579 387.611Q472.348 393.001 468.856 398.226Q465.365 403.452 461.621 408.499Q457.878 413.547 453.891 418.405Q449.904 423.263 445.684 427.919Q441.463 432.576 437.02 437.02Q432.576 441.463 427.919 445.684Q423.263 449.904 418.405 453.891Q413.547 457.878 408.499 461.621Q403.452 465.365 398.226 468.856Q393.001 472.348 387.611 475.579Q382.22 478.809 376.678 481.772Q371.136 484.734 365.455 487.421Q359.774 490.108 353.968 492.513Q348.161 494.918 342.244 497.035Q336.327 499.152 330.314 500.977Q324.3 502.801 318.204 504.328Q312.108 505.855 305.944 507.081Q299.78 508.307 293.564 509.229Q287.347 510.151 281.093 510.767Q274.839 511.383 268.562 511.692Q262.285 512 256.001 512L255.999 512Q249.715 512 243.438 511.692Q237.161 511.383 230.907 510.767Q224.653 510.151 218.436 509.229Q212.22 508.307 206.056 507.081Q199.892 505.855 193.796 504.328Q187.7 502.801 181.686 500.977Q175.673 499.152 169.756 497.035Q163.838 494.918 158.032 492.513Q152.226 490.108 146.545 487.421Q140.864 484.734 135.322 481.772Q129.78 478.809 124.389 475.579Q118.999 472.348 113.774 468.856Q108.548 465.365 103.501 461.621Q98.4529 457.878 93.5949 453.891Q88.737 449.904 84.0806 445.684Q79.4241 441.463 74.9804 437.02Q70.5366 432.576 66.3162 427.919Q62.0959 423.263 58.1091 418.405Q54.1223 413.547 50.3787 408.499Q46.635 403.452 43.1436 398.226Q39.6522 393.001 36.4213 387.611Q33.1905 382.22 30.228 376.678Q27.2656 371.136 24.5786 365.455Q21.8917 359.774 19.4868 353.968Q17.0818 348.161 14.9647 342.244Q12.8475 336.327 11.0232 330.314Q9.19896 324.3 7.67197 318.204Q6.14498 312.108 4.91895 305.944Q3.69292 299.78 2.7708 293.564Q1.84869 287.347 1.2327 281.093Q0.616724 274.839 0.308362 268.562Q0 262.285 0 256.001L0 255.999Q0 249.715 0.308362 243.438Q0.616724 237.161 1.2327 230.907Q1.84869 224.653 2.7708 218.436Q3.69292 212.22 4.91895 206.056Q6.14498 199.892 7.67197 193.796Q9.19896 187.7 11.0232 181.686Q12.8475 175.673 14.9647 169.756Q17.0818 163.838 19.4868 158.032Q21.8917 152.226 24.5786 146.545Q27.2656 140.864 30.228 135.322Q33.1905 129.78 36.4213 124.389Q39.6522 118.999 43.1436 113.774Q46.635 108.548 50.3787 103.501Q54.1223 98.4529 58.1091 93.5949Q62.0959 88.737 66.3162 84.0806Q70.5366 79.4241 74.9804 74.9804Q79.4241 70.5366 84.0806 66.3162Q88.737 62.0959 93.5949 58.1091Q98.4529 54.1223 103.501 50.3787Q108.548 46.635 113.774 43.1436Q118.999 39.6522 124.389 36.4213Q129.78 33.1905 135.322 30.228Q140.864 27.2656 146.545 24.5786Q152.226 21.8917 158.032 19.4868Q163.838 17.0818 169.756 14.9647Q175.673 12.8475 181.686 11.0232Q187.7 9.19896 193.796 7.67197Q199.892 6.14498 206.056 4.91895Q212.22 3.69292 218.436 2.7708Q224.653 1.84869 230.907 1.2327Q237.161 0.616724 243.438 0.308362Q249.715 0 255.999 0Z" id="path_1" />
    <path d="M0 0L428 0L428 428L0 428L0 0Z" id="path_2" />
    <clipPath id="mask_1">
      <use xlink:href="#path_1" />
    </clipPath>
    <clipPath id="mask_2">
      <use xlink:href="#path_2" />
    </clipPath>
  </defs>
  <g id="Magnify247-Logo-3" transform="matrix(-1 0 0 1 512 0)">
    <path d="M255.999 0L256.001 0Q262.285 0 268.562 0.308362Q274.839 0.616724 281.093 1.2327Q287.347 1.84869 293.564 2.7708Q299.78 3.69292 305.944 4.91895Q312.108 6.14498 318.204 7.67197Q324.3 9.19896 330.314 11.0232Q336.327 12.8475 342.244 14.9647Q348.161 17.0818 353.968 19.4868Q359.774 21.8917 365.455 24.5786Q371.136 27.2656 376.678 30.228Q382.22 33.1905 387.611 36.4213Q393.001 39.6522 398.226 43.1436Q403.452 46.635 408.499 50.3787Q413.547 54.1223 418.405 58.1091Q423.263 62.0959 427.919 66.3162Q432.576 70.5366 437.02 74.9804Q441.463 79.4241 445.684 84.0806Q449.904 88.737 453.891 93.5949Q457.878 98.4529 461.621 103.501Q465.365 108.548 468.856 113.774Q472.348 118.999 475.579 124.389Q478.809 129.78 481.772 135.322Q484.734 140.864 487.421 146.545Q490.108 152.226 492.513 158.032Q494.918 163.838 497.035 169.756Q499.152 175.673 500.977 181.686Q502.801 187.7 504.328 193.796Q505.855 199.892 507.081 206.056Q508.307 212.22 509.229 218.436Q510.151 224.653 510.767 230.907Q511.383 237.161 511.692 243.438Q512 249.715 512 255.999L512 256.001Q512 262.285 511.692 268.562Q511.383 274.839 510.767 281.093Q510.151 287.347 509.229 293.564Q508.307 299.78 507.081 305.944Q505.855 312.108 504.328 318.204Q502.801 324.3 500.977 330.314Q499.152 336.327 497.035 342.244Q494.918 348.161 492.513 353.968Q490.108 359.774 487.421 365.455Q484.734 371.136 481.772 376.678Q478.809 382.22 475.579 387.611Q472.348 393.001 468.856 398.226Q465.365 403.452 461.621 408.499Q457.878 413.547 453.891 418.405Q449.904 423.263 445.684 427.919Q441.463 432.576 437.02 437.02Q432.576 441.463 427.919 445.684Q423.263 449.904 418.405 453.891Q413.547 457.878 408.499 461.621Q403.452 465.365 398.226 468.856Q393.001 472.348 387.611 475.579Q382.22 478.809 376.678 481.772Q371.136 484.734 365.455 487.421Q359.774 490.108 353.968 492.513Q348.161 494.918 342.244 497.035Q336.327 499.152 330.314 500.977Q324.3 502.801 318.204 504.328Q312.108 505.855 305.944 507.081Q299.78 508.307 293.564 509.229Q287.347 510.151 281.093 510.767Q274.839 511.383 268.562 511.692Q262.285 512 256.001 512L255.999 512Q249.715 512 243.438 511.692Q237.161 511.383 230.907 510.767Q224.653 510.151 218.436 509.229Q212.22 508.307 206.056 507.081Q199.892 505.855 193.796 504.328Q187.7 502.801 181.686 500.977Q175.673 499.152 169.756 497.035Q163.838 494.918 158.032 492.513Q152.226 490.108 146.545 487.421Q140.864 484.734 135.322 481.772Q129.78 478.809 124.389 475.579Q118.999 472.348 113.774 468.856Q108.548 465.365 103.501 461.621Q98.4529 457.878 93.5949 453.891Q88.737 449.904 84.0806 445.684Q79.4241 441.463 74.9804 437.02Q70.5366 432.576 66.3162 427.919Q62.0959 423.263 58.1091 418.405Q54.1223 413.547 50.3787 408.499Q46.635 403.452 43.1436 398.226Q39.6522 393.001 36.4213 387.611Q33.1905 382.22 30.228 376.678Q27.2656 371.136 24.5786 365.455Q21.8917 359.774 19.4868 353.968Q17.0818 348.161 14.9647 342.244Q12.8475 336.327 11.0232 330.314Q9.19896 324.3 7.67197 318.204Q6.14498 312.108 4.91895 305.944Q3.69292 299.78 2.7708 293.564Q1.84869 287.347 1.2327 281.093Q0.616724 274.839 0.308362 268.562Q0 262.285 0 256.001L0 255.999Q0 249.715 0.308362 243.438Q0.616724 237.161 1.2327 230.907Q1.84869 224.653 2.7708 218.436Q3.69292 212.22 4.91895 206.056Q6.14498 199.892 7.67197 193.796Q9.19896 187.7 11.0232 181.686Q12.8475 175.673 14.9647 169.756Q17.0818 163.838 19.4868 158.032Q21.8917 152.226 24.5786 146.545Q27.2656 140.864 30.228 135.322Q33.1905 129.78 36.4213 124.389Q39.6522 118.999 43.1436 113.774Q46.635 108.548 50.3787 103.501Q54.1223 98.4529 58.1091 93.5949Q62.0959 88.737 66.3162 84.0806Q70.5366 79.4241 74.9804 74.9804Q79.4241 70.5366 84.0806 66.3162Q88.737 62.0959 93.5949 58.1091Q98.4529 54.1223 103.501 50.3787Q108.548 46.635 113.774 43.1436Q118.999 39.6522 124.389 36.4213Q129.78 33.1905 135.322 30.228Q140.864 27.2656 146.545 24.5786Q152.226 21.8917 158.032 19.4868Q163.838 17.0818 169.756 14.9647Q175.673 12.8475 181.686 11.0232Q187.7 9.19896 193.796 7.67197Q199.892 6.14498 206.056 4.91895Q212.22 3.69292 218.436 2.7708Q224.653 1.84869 230.907 1.2327Q237.161 0.616724 243.438 0.308362Q249.715 0 255.999 0Z" id="Background" fill="url(#gradient_1)" fill-rule="evenodd" stroke="none" />
    <g clip-path="url(#mask_1)">
      <g id="canary-bird-black-by-Vexels" transform="matrix(-1 0 0 1 470.37347 41.99994)">
        <path d="M0 0L428 0L428 428L0 428L0 0Z" id="Background" fill="none" fill-rule="evenodd" stroke="none" />
        <g clip-path="url(#mask_2)">
          <g id="Group" transform="translate(17.833252 53.02765)">
            <path d="M54.803 9.4617C53.8075 9.82194 52.7924 9.99563 51.7945 9.99563C50.314 9.99563 48.878 9.59902 47.5969 8.86464L0.306806 58.1427C0.154866 58.2972 -0.168988 58.6239 0.108856 59.1767C0.366012 59.6939 0.768688 59.6411 0.927048 59.6165L15.6338 57.5368C15.7908 57.515 15.9359 57.4455 16.0558 57.3374L77.6164 0C68.3595 4.2886 60.5877 7.3677 54.803 9.4617L54.803 9.4617Z" transform="translate(0 205.44397)" id="Shape" fill="url(#gradient_2)" fill-rule="evenodd" stroke="none" />
            <path d="M1.01591 122.277C21.2015 119.519 40.6041 114.655 59.0156 107.781C59.2845 107.645 59.5627 107.538 59.8477 107.468C69.5644 103.802 79.0082 99.586 88.1332 94.8009C110.851 82.8872 135.564 67.7128 146.626 45.4953C151.839 35.0236 152.896 24.3575 149.524 16.2323C146.901 9.91319 141.744 5.43133 134.196 2.91219C128.377 0.970134 122.524 0 116.652 0C110.084 0 103.484 1.22622 96.8608 3.64584C96.5394 3.82489 96.196 3.94437 95.8429 4.02748C73.8009 12.488 51.4942 34.2971 29.1662 69.3307C13.7817 93.4666 4.3536 112.02 0.102489 120.931C-0.103306 121.361 0.0393587 121.704 0.1938 121.918C0.403884 122.202 0.688146 122.32 1.01591 122.277L1.01591 122.277Z" transform="translate(83.19669 49.382046)" id="Shape" fill="url(#gradient_2)" fill-rule="evenodd" stroke="none" />
            <path d="M0.11886 34.6937C0.145255 34.7408 0.165941 34.7882 0.202318 34.8346C0.548285 35.2733 0.906024 35.142 1.0601 35.0853C14.7486 30.1305 39.8141 19.5464 69.523 0C58.0537 3.08267 46.2747 5.45451 34.2294 7.10088C33.8321 7.15473 33.4358 7.18183 33.041 7.18183C30.2654 7.18183 27.6271 5.85968 25.9551 3.5713C25.4914 2.93573 25.1255 2.25022 24.8494 1.53723C13.8972 14.0366 5.62721 25.5477 0.160934 33.8195C-0.00777161 34.0752 -0.0430813 34.3277 0.0514352 34.5735C0.0717785 34.6145 0.101025 34.6519 0.11886 34.6937L0.11886 34.6937Z" transform="translate(51.053257 172.38853)" id="Shape" fill="url(#gradient_2)" fill-rule="evenodd" stroke="none" />
            <path d="M25.9165 7.75786C19.1434 0.745437 7.4091 0.0288932 3.36058 0C1.69565 1.94241 -1.64203 7.17257 0.957366 15.7129C8.54724 11.0385 18.1747 8.57855 25.9165 7.75786L25.9165 7.75786Z" transform="translate(294.31918 19.13707)" id="Shape" fill="url(#gradient_2)" fill-rule="evenodd" stroke="none" />
            <path d="M0 44.729L19.2183 42.1285C21.0847 41.8753 22.8106 41.0749 24.2077 39.8144L68.4482 0.00404907C60.7528 -0.0587333 53.0766 0.599328 45.2688 2.56705L0 44.729L0 44.729Z" transform="translate(46.90495 200.11855)" id="Shape" fill="url(#gradient_2)" fill-rule="evenodd" stroke="none" />
            <path d="M277.302 156.553C276.926 154.403 274.877 152.966 272.729 153.341C247.713 157.71 225.957 166.26 211.789 172.852C220.966 160.469 229.105 146.923 236.074 132.257C237.011 130.286 236.172 127.929 234.202 126.993C232.228 126.053 229.872 126.894 228.936 128.866C219.075 149.616 206.082 169.407 190.411 186.249C179.414 198.066 166.931 208.408 153.716 217.649C148.976 220.963 144.028 223.943 138.943 226.684L117.782 194.738C136.563 191.264 153.555 183.093 166.437 170.999C185.504 153.101 196.658 125.951 201.539 85.5584C201.749 83.8214 201.943 82.0744 202.138 80.3236C203.682 66.4549 205.274 52.1398 214.543 40.3587C209.937 29.1786 212.66 20.4963 216.153 15.5101C198.236 0.120298 174.238 -4.34339 155.345 4.49731C139.415 11.9552 126.22 27.6764 114.531 42.4142C124.882 40.5738 135.237 41.3485 145.574 44.7989C155.253 48.0285 162.211 54.1792 165.701 62.5862C169.951 72.8257 168.812 85.8797 162.578 98.3998C150.512 122.635 124.518 138.682 100.682 151.182C91.2667 156.12 81.5251 160.469 71.5038 164.249C56.5063 175.556 42.1997 184.705 29.2816 192.043L28.4563 192.812C36.0704 192.012 43.5797 192.124 50.9876 192.638C51.0679 192.64 51.1467 192.647 51.2269 192.654C57.2214 193.078 63.1503 193.756 69.0103 194.432C75.3394 195.164 81.8525 195.894 88.3748 196.31L115.15 237.784C114.446 238.077 113.743 238.376 113.038 238.665C98.313 244.329 82.7317 248.475 66.3732 250.937C35.6438 255.562 15.2443 266.256 5.74018 282.721C-4.66023 300.738 2.19027 318.683 2.48738 319.438C3.09835 320.995 4.58922 321.946 6.16604 321.946C6.64718 321.946 7.13581 321.857 7.60911 321.67C9.64139 320.873 10.6408 318.579 9.84184 316.549C9.78407 316.398 4.0667 301.428 12.5843 286.671C20.3596 273.202 37.2702 264.084 62.865 259.527C57.286 263.986 53.0542 269.091 50.2415 274.834C43.3988 288.8 47.6007 301.224 47.7833 301.745C48.3504 303.372 49.8734 304.387 51.5044 304.387C51.9314 304.387 52.3661 304.317 52.7931 304.171C54.8485 303.465 55.9456 301.22 55.2512 299.16C55.2177 299.061 51.9699 289.123 57.4094 278.164C62.5336 267.84 73.5104 259.792 90.064 254.231C114.412 248.116 136.873 238.271 157.008 224.993C160.947 226.744 169.604 229.737 182.837 229.737C189.401 229.737 197.083 229 205.862 227.006C207.99 226.523 209.323 224.406 208.84 222.278C208.357 220.149 206.246 218.818 204.112 219.299C185.293 223.573 172.128 221.538 164.968 219.455C177.474 210.357 189.002 199.873 199.442 188.083C204.575 185.127 235.827 167.808 274.089 161.126C276.239 160.75 277.677 158.702 277.302 156.553L277.302 156.553ZM190.76 13.4129C193.957 13.4129 196.548 16.0219 196.548 19.2404C196.548 22.4586 193.956 25.0677 190.76 25.0677C187.564 25.0677 184.973 22.4586 184.973 19.2404C184.973 16.0219 187.564 13.4129 190.76 13.4129L190.76 13.4129ZM122.523 234.633L97.9763 196.612C101.735 196.58 105.453 196.362 109.124 195.975L131.86 230.298C128.778 231.804 125.665 233.248 122.523 234.633L122.523 234.633Z" transform="translate(74.318794 0)" id="Shape" fill="url(#gradient_2)" fill-rule="evenodd" stroke="none" filter="url(#filter_1)" />
          </g>
        </g>
      </g>
    </g>
  </g>
</svg>