<?xml version="1.0" encoding="utf-8"?>
<svg width="512px" height="513px" viewBox="0 0 512 513" version="1.1" xmlns:xlink="http://www.w3.org/1999/xlink" xmlns="http://www.w3.org/2000/svg">
  <desc>Created with Lunacy</desc>
  <defs>
    <linearGradient x1="0.84586954" y1="0.04918903" x2="0.23770666" y2="0.9803387" id="gradient_1">
      <stop offset="0" stop-color="#3E4451" />
      <stop offset="1" stop-color="#0B0C0E" />
    </linearGradient>
    <linearGradient x1="0.9259541" y1="-3.961971E-08" x2="0" y2="1.0000001" id="gradient_2">
      <stop offset="0" stop-color="#FAE800" />
      <stop offset="0.261" stop-color="#FAE800" />
      <stop offset="0.639" stop-color="#FAE800" />
      <stop offset="1" stop-color="#FAE800" />
    </linearGradient>
    <path d="M255.999 0L256.001 0Q262.285 0 268.562 0.308362Q274.839 0.616724 281.093 1.2327Q287.347 1.84869 293.564 2.7708Q299.78 3.69292 305.944 4.91895Q312.108 6.14498 318.204 7.67197Q324.3 9.19896 330.314 11.0232Q336.327 12.8475 342.244 14.9647Q348.161 17.0818 353.968 19.4868Q359.774 21.8917 365.455 24.5786Q371.136 27.2656 376.678 30.228Q382.22 33.1905 387.611 36.4213Q393.001 39.6522 398.226 43.1436Q403.452 46.635 408.499 50.3787Q413.547 54.1223 418.405 58.1091Q423.263 62.0959 427.919 66.3162Q432.576 70.5366 437.02 74.9804Q441.463 79.4241 445.684 84.0806Q449.904 88.737 453.891 93.5949Q457.878 98.4529 461.621 103.501Q465.365 108.548 468.856 113.774Q472.348 118.999 475.579 124.389Q478.809 129.78 481.772 135.322Q484.734 140.864 487.421 146.545Q490.108 152.226 492.513 158.032Q494.918 163.838 497.035 169.756Q499.152 175.673 500.977 181.686Q502.801 187.7 504.328 193.796Q505.855 199.892 507.081 206.056Q508.307 212.22 509.229 218.436Q510.151 224.653 510.767 230.907Q511.383 237.161 511.692 243.438Q512 249.715 512 255.999L512 256.001Q512 262.285 511.692 268.562Q511.383 274.839 510.767 281.093Q510.151 287.347 509.229 293.564Q508.307 299.78 507.081 305.944Q505.855 312.108 504.328 318.204Q502.801 324.3 500.977 330.314Q499.152 336.327 497.035 342.244Q494.918 348.161 492.513 353.968Q490.108 359.774 487.421 365.455Q484.734 371.136 481.772 376.678Q478.809 382.22 475.579 387.611Q472.348 393.001 468.856 398.226Q465.365 403.452 461.621 408.499Q457.878 413.547 453.891 418.405Q449.904 423.263 445.684 427.919Q441.463 432.576 437.02 437.02Q432.576 441.463 427.919 445.684Q423.263 449.904 418.405 453.891Q413.547 457.878 408.499 461.621Q403.452 465.365 398.226 468.856Q393.001 472.348 387.611 475.579Q382.22 478.809 376.678 481.772Q371.136 484.734 365.455 487.421Q359.774 490.108 353.968 492.513Q348.161 494.918 342.244 497.035Q336.327 499.152 330.314 500.977Q324.3 502.801 318.204 504.328Q312.108 505.855 305.944 507.081Q299.78 508.307 293.564 509.229Q287.347 510.151 281.093 510.767Q274.839 511.383 268.562 511.692Q262.285 512 256.001 512L255.999 512Q249.715 512 243.438 511.692Q237.161 511.383 230.907 510.767Q224.653 510.151 218.436 509.229Q212.22 508.307 206.056 507.081Q199.892 505.855 193.796 504.328Q187.7 502.801 181.686 500.977Q175.673 499.152 169.756 497.035Q163.838 494.918 158.032 492.513Q152.226 490.108 146.545 487.421Q140.864 484.734 135.322 481.772Q129.78 478.809 124.389 475.579Q118.999 472.348 113.774 468.856Q108.548 465.365 103.501 461.621Q98.4529 457.878 93.5949 453.891Q88.737 449.904 84.0806 445.684Q79.4241 441.463 74.9804 437.02Q70.5366 432.576 66.3162 427.919Q62.0959 423.263 58.1091 418.405Q54.1223 413.547 50.3787 408.499Q46.635 403.452 43.1436 398.226Q39.6522 393.001 36.4213 387.611Q33.1905 382.22 30.228 376.678Q27.2656 371.136 24.5786 365.455Q21.8917 359.774 19.4868 353.968Q17.0818 348.161 14.9647 342.244Q12.8475 336.327 11.0232 330.314Q9.19896 324.3 7.67197 318.204Q6.14498 312.108 4.91895 305.944Q3.69292 299.78 2.7708 293.564Q1.84869 287.347 1.2327 281.093Q0.616724 274.839 0.308362 268.562Q0 262.285 0 256.001L0 255.999Q0 249.715 0.308362 243.438Q0.616724 237.161 1.2327 230.907Q1.84869 224.653 2.7708 218.436Q3.69292 212.22 4.91895 206.056Q6.14498 199.892 7.67197 193.796Q9.19896 187.7 11.0232 181.686Q12.8475 175.673 14.9647 169.756Q17.0818 163.838 19.4868 158.032Q21.8917 152.226 24.5786 146.545Q27.2656 140.864 30.228 135.322Q33.1905 129.78 36.4213 124.389Q39.6522 118.999 43.1436 113.774Q46.635 108.548 50.3787 103.501Q54.1223 98.4529 58.1091 93.5949Q62.0959 88.737 66.3162 84.0806Q70.5366 79.4241 74.9804 74.9804Q79.4241 70.5366 84.0806 66.3162Q88.737 62.0959 93.5949 58.1091Q98.4529 54.1223 103.501 50.3787Q108.548 46.635 113.774 43.1436Q118.999 39.6522 124.389 36.4213Q129.78 33.1905 135.322 30.228Q140.864 27.2656 146.545 24.5786Q152.226 21.8917 158.032 19.4868Q163.838 17.0818 169.756 14.9647Q175.673 12.8475 181.686 11.0232Q187.7 9.19896 193.796 7.67197Q199.892 6.14498 206.056 4.91895Q212.22 3.69292 218.436 2.7708Q224.653 1.84869 230.907 1.2327Q237.161 0.616724 243.438 0.308362Q249.715 0 255.999 0Z" id="path_1" />
    <path d="M0 0L428 0L428 428L0 428L0 0Z" id="path_2" />
    <clipPath id="mask_1">
      <use xlink:href="#path_1" />
    </clipPath>
    <clipPath id="mask_2">
      <use xlink:href="#path_2" />
    </clipPath>
  </defs>
  <g id="Magnify247-Logo-5" transform="matrix(-1 0 0 1 512 0)">
    <path d="M255.999 0L256.001 0Q262.285 0 268.562 0.308362Q274.839 0.616724 281.093 1.2327Q287.347 1.84869 293.564 2.7708Q299.78 3.69292 305.944 4.91895Q312.108 6.14498 318.204 7.67197Q324.3 9.19896 330.314 11.0232Q336.327 12.8475 342.244 14.9647Q348.161 17.0818 353.968 19.4868Q359.774 21.8917 365.455 24.5786Q371.136 27.2656 376.678 30.228Q382.22 33.1905 387.611 36.4213Q393.001 39.6522 398.226 43.1436Q403.452 46.635 408.499 50.3787Q413.547 54.1223 418.405 58.1091Q423.263 62.0959 427.919 66.3162Q432.576 70.5366 437.02 74.9804Q441.463 79.4241 445.684 84.0806Q449.904 88.737 453.891 93.5949Q457.878 98.4529 461.621 103.501Q465.365 108.548 468.856 113.774Q472.348 118.999 475.579 124.389Q478.809 129.78 481.772 135.322Q484.734 140.864 487.421 146.545Q490.108 152.226 492.513 158.032Q494.918 163.838 497.035 169.756Q499.152 175.673 500.977 181.686Q502.801 187.7 504.328 193.796Q505.855 199.892 507.081 206.056Q508.307 212.22 509.229 218.436Q510.151 224.653 510.767 230.907Q511.383 237.161 511.692 243.438Q512 249.715 512 255.999L512 256.001Q512 262.285 511.692 268.562Q511.383 274.839 510.767 281.093Q510.151 287.347 509.229 293.564Q508.307 299.78 507.081 305.944Q505.855 312.108 504.328 318.204Q502.801 324.3 500.977 330.314Q499.152 336.327 497.035 342.244Q494.918 348.161 492.513 353.968Q490.108 359.774 487.421 365.455Q484.734 371.136 481.772 376.678Q478.809 382.22 475.579 387.611Q472.348 393.001 468.856 398.226Q465.365 403.452 461.621 408.499Q457.878 413.547 453.891 418.405Q449.904 423.263 445.684 427.919Q441.463 432.576 437.02 437.02Q432.576 441.463 427.919 445.684Q423.263 449.904 418.405 453.891Q413.547 457.878 408.499 461.621Q403.452 465.365 398.226 468.856Q393.001 472.348 387.611 475.579Q382.22 478.809 376.678 481.772Q371.136 484.734 365.455 487.421Q359.774 490.108 353.968 492.513Q348.161 494.918 342.244 497.035Q336.327 499.152 330.314 500.977Q324.3 502.801 318.204 504.328Q312.108 505.855 305.944 507.081Q299.78 508.307 293.564 509.229Q287.347 510.151 281.093 510.767Q274.839 511.383 268.562 511.692Q262.285 512 256.001 512L255.999 512Q249.715 512 243.438 511.692Q237.161 511.383 230.907 510.767Q224.653 510.151 218.436 509.229Q212.22 508.307 206.056 507.081Q199.892 505.855 193.796 504.328Q187.7 502.801 181.686 500.977Q175.673 499.152 169.756 497.035Q163.838 494.918 158.032 492.513Q152.226 490.108 146.545 487.421Q140.864 484.734 135.322 481.772Q129.78 478.809 124.389 475.579Q118.999 472.348 113.774 468.856Q108.548 465.365 103.501 461.621Q98.4529 457.878 93.5949 453.891Q88.737 449.904 84.0806 445.684Q79.4241 441.463 74.9804 437.02Q70.5366 432.576 66.3162 427.919Q62.0959 423.263 58.1091 418.405Q54.1223 413.547 50.3787 408.499Q46.635 403.452 43.1436 398.226Q39.6522 393.001 36.4213 387.611Q33.1905 382.22 30.228 376.678Q27.2656 371.136 24.5786 365.455Q21.8917 359.774 19.4868 353.968Q17.0818 348.161 14.9647 342.244Q12.8475 336.327 11.0232 330.314Q9.19896 324.3 7.67197 318.204Q6.14498 312.108 4.91895 305.944Q3.69292 299.78 2.7708 293.564Q1.84869 287.347 1.2327 281.093Q0.616724 274.839 0.308362 268.562Q0 262.285 0 256.001L0 255.999Q0 249.715 0.308362 243.438Q0.616724 237.161 1.2327 230.907Q1.84869 224.653 2.7708 218.436Q3.69292 212.22 4.91895 206.056Q6.14498 199.892 7.67197 193.796Q9.19896 187.7 11.0232 181.686Q12.8475 175.673 14.9647 169.756Q17.0818 163.838 19.4868 158.032Q21.8917 152.226 24.5786 146.545Q27.2656 140.864 30.228 135.322Q33.1905 129.78 36.4213 124.389Q39.6522 118.999 43.1436 113.774Q46.635 108.548 50.3787 103.501Q54.1223 98.4529 58.1091 93.5949Q62.0959 88.737 66.3162 84.0806Q70.5366 79.4241 74.9804 74.9804Q79.4241 70.5366 84.0806 66.3162Q88.737 62.0959 93.5949 58.1091Q98.4529 54.1223 103.501 50.3787Q108.548 46.635 113.774 43.1436Q118.999 39.6522 124.389 36.4213Q129.78 33.1905 135.322 30.228Q140.864 27.2656 146.545 24.5786Q152.226 21.8917 158.032 19.4868Q163.838 17.0818 169.756 14.9647Q175.673 12.8475 181.686 11.0232Q187.7 9.19896 193.796 7.67197Q199.892 6.14498 206.056 4.91895Q212.22 3.69292 218.436 2.7708Q224.653 1.84869 230.907 1.2327Q237.161 0.616724 243.438 0.308362Q249.715 0 255.999 0Z" id="Background" fill="url(#gradient_1)" fill-rule="evenodd" stroke="none" />
    <g clip-path="url(#mask_1)">
      <g id="Worldwide-Ecosystem-Icon" transform="matrix(-1 0 0 1 463.83337 30.000122)">
        <path d="M0 0L428 0L428 428L0 428L0 0Z" id="Background" fill="none" fill-rule="evenodd" stroke="none" />
        <g clip-path="url(#mask_2)">
          <g id="Group" transform="translate(2.050293 0.07644653)">
            <path d="M0 131.753C1.94546 91.5474 22.0485 49.3959 65.497 20.8625C113.485 -10.9132 177.685 -5.72534 222.43 31.8868C291.17 90.2504 289.224 201.79 218.539 257.559C162.77 301.008 86.2485 293.875 37.6121 241.347C12.9697 214.76 0 180.39 0 131.753L0 131.753ZM131.642 136.941C131.642 117.487 131.642 99.3292 131.642 81.8201C116.079 77.9292 100.515 74.6868 84.9515 70.7959C76.5212 91.5474 70.6848 112.947 71.3333 135.644C91.4363 135.644 110.891 136.293 131.642 136.941L131.642 136.941ZM143.315 206.329C151.745 207.626 159.527 208.275 166.661 209.572C174.442 211.517 181.576 213.463 189.358 216.056C196.491 194.656 202.327 173.256 202.327 150.56C182.224 150.56 162.77 149.911 143.315 149.263C143.315 168.717 143.315 187.523 143.315 206.329L143.315 206.329ZM69.3879 149.263C71.3334 172.608 76.5213 193.359 83.6546 214.111C98.5698 210.869 113.485 207.626 128.4 204.384C128.4 186.226 128.4 167.42 128.4 147.966C108.297 148.614 88.8425 148.614 69.3879 149.263L69.3879 149.263ZM189.358 69.4989C181.576 72.0928 174.442 75.3353 166.661 77.2807C158.879 79.2262 151.097 79.8747 142.667 81.1716C142.667 99.3292 142.667 117.487 142.667 136.293C162.77 135.644 182.224 134.996 201.679 134.996C202.327 111.65 197.139 90.2504 189.358 69.4989L189.358 69.4989ZM59.0121 134.996C60.309 122.675 60.9575 111.002 62.903 99.3292C64.8484 87.6565 68.7393 75.9837 71.3333 64.9595C71.3333 64.311 71.3333 62.3656 70.0363 61.7171C65.4969 58.4747 60.9575 55.2322 55.7696 51.3413C31.7757 74.0383 18.806 101.923 17.509 134.347C31.7757 134.996 45.3939 134.996 59.0121 134.996L59.0121 134.996ZM253.558 149.911C239.291 149.911 225.673 149.911 212.703 149.911C211.406 162.232 211.406 174.553 209.461 186.226C207.515 197.899 204.273 210.22 201.679 221.893C206.218 225.135 211.406 228.378 217.242 232.269C240.588 210.22 253.558 182.984 253.558 149.911L253.558 149.911ZM71.9818 221.244C63.5515 198.547 59.6606 174.553 59.6606 149.911C45.3939 149.911 31.7758 149.911 18.1576 149.911C19.4546 175.202 27.2364 197.899 42.8 217.353C46.6909 221.893 49.9333 226.432 54.4727 230.972C55.1212 231.62 57.7152 231.62 58.3636 230.972C62.2546 228.378 66.794 224.487 71.9818 221.244L71.9818 221.244ZM214 134.347C228.267 134.347 241.885 134.347 255.503 134.347C252.261 102.572 241.236 74.6868 218.539 52.6383C213.351 55.8807 208.812 59.7716 202.976 63.014C211.406 85.711 213.351 110.353 214 134.347L214 134.347ZM129.697 265.99C129.697 250.426 129.697 234.214 129.697 218.65C115.43 219.947 101.812 222.541 88.194 228.378C94.6788 240.699 101.812 252.372 112.188 261.45C118.024 265.99 123.212 267.287 129.697 265.99L129.697 265.99ZM129.697 18.9171C124.509 19.5656 119.321 18.2686 116.079 20.8625C103.109 29.2928 94.6788 42.2625 88.8424 56.5292C102.461 62.3656 115.43 66.2565 130.345 66.2565C129.697 50.0444 129.697 35.1292 129.697 18.9171L129.697 18.9171ZM184.17 228.378C172.497 221.893 152.394 217.353 143.315 218.65C143.315 234.214 143.315 250.426 143.315 266.638C148.503 265.341 153.691 265.341 156.933 263.396C169.903 254.966 178.333 242.644 184.17 228.378L184.17 228.378ZM184.818 57.8262C178.333 44.8565 171.2 33.8322 160.176 24.7535C154.988 20.2141 149.152 20.8625 143.315 20.2141C143.315 36.4262 143.315 51.9898 143.315 68.2019C158.23 67.5535 171.2 63.6625 184.818 57.8262L184.818 57.8262ZM207.515 43.5595C200.382 37.0747 193.248 32.5353 184.17 30.5898C188.709 37.7231 192.6 44.208 196.491 50.6928C199.733 48.7474 202.976 46.1534 207.515 43.5595L207.515 43.5595ZM76.5212 50.0444C81.0606 42.911 84.9515 36.4262 88.8424 30.5898C88.8424 30.5898 88.1939 29.9413 88.1939 29.9413C81.0606 33.8322 73.2788 37.7232 65.4969 42.2625C69.3879 44.8565 73.2788 47.4504 76.5212 50.0444L76.5212 50.0444ZM77.1697 234.863C73.9272 237.456 70.0363 239.402 65.4969 242.644C73.2788 247.184 80.4121 251.075 87.5454 254.966C87.5454 254.966 87.5454 254.317 88.1939 254.317C84.303 247.832 81.0606 241.347 77.1697 234.863L77.1697 234.863ZM196.491 236.159C191.952 243.293 188.061 249.129 184.17 255.614C184.17 255.614 184.17 256.262 184.818 256.262C191.951 252.372 199.085 248.481 207.515 243.941C202.976 240.699 199.733 238.753 196.491 236.159L196.491 236.159Z" transform="translate(68.63391 82.81862)" id="Shape" fill="url(#gradient_2)" fill-rule="evenodd" stroke="none" />
            <path d="M166.094 281.044C171.93 279.747 176.47 277.801 181.658 277.153C184.252 276.505 187.494 275.856 189.439 276.505C192.033 277.802 195.276 280.395 195.924 282.989C196.573 284.935 194.627 288.826 193.33 290.771C191.385 292.717 188.142 294.662 184.9 295.311C173.227 298.553 160.906 301.147 149.233 304.389C141.452 306.335 136.912 303.741 134.967 295.959C132.373 284.935 129.13 273.262 126.536 262.238C125.239 255.753 128.482 249.917 134.318 248.62C140.803 247.323 145.342 249.917 147.288 257.05C147.936 260.292 149.233 263.535 149.882 266.777C150.53 266.777 150.53 266.777 151.179 266.777C153.773 260.292 156.367 253.159 158.312 246.674C166.742 215.547 167.391 183.771 158.312 153.292C154.421 139.674 148.585 126.705 142.1 113.735C112.918 60.559 66.8758 32.0257 8.51213 19.7045C2.67576 18.4075 -0.566667 13.8681 0.0818324 8.68022C1.37881 2.84386 5.91821 -1.04705 11.7546 0.249919C90.2212 15.8136 144.694 60.559 172.579 135.783C182.306 161.723 183.603 188.959 182.306 216.844C181.009 238.244 175.173 257.698 167.391 277.153C166.742 278.45 166.742 279.098 166.094 281.044L166.094 281.044Z" transform="translate(227.43091 26.26155)" id="Shape" fill="url(#gradient_2)" fill-rule="evenodd" stroke="none" />
            <path d="M25.8516 35.7286C24.5547 40.268 23.2577 44.8074 21.9607 49.3468C20.0153 55.8317 14.1789 59.0741 8.34253 57.1286C1.85768 55.1832 -1.38474 49.9953 0.56071 43.5105C3.80313 31.8377 6.39707 19.5165 9.6395 7.84379C11.585 0.710468 16.1243 -1.23501 22.6092 0.710468C34.2819 3.95289 45.9547 6.54684 58.2759 9.78927C60.2213 10.4377 62.8153 11.0862 64.1122 12.3832C68.0031 14.9772 69.3001 20.8135 67.3547 24.7044C65.4092 28.5953 60.2213 31.1893 55.6819 30.5408C53.7365 29.8923 51.791 29.8923 50.494 29.2438C48.5486 28.5954 46.6031 28.5954 44.6577 28.5954C49.8456 34.4317 54.385 40.2681 60.2213 45.456C77.0819 59.7226 95.2395 72.6923 115.991 81.1226C183.433 110.304 270.33 94.7408 319.615 44.159C324.155 39.6196 328.694 34.4317 333.882 29.8923C337.773 26.0014 342.961 25.3529 346.852 27.2984C353.985 31.1893 354.633 39.6196 348.797 44.8075C339.718 53.2378 331.288 62.3166 321.561 70.0984C288.488 97.3348 249.579 111.601 206.779 114.844C163.33 118.086 122.476 108.359 84.8637 86.3105C62.8153 73.3408 44.0092 56.4802 27.7971 37.6741C27.1486 37.0257 27.1486 36.3772 27.1486 35.7287C26.5001 35.7286 25.8516 35.7286 25.8516 35.7286L25.8516 35.7286Z" transform="translate(15.545898 313.07977)" id="Shape" fill="url(#gradient_2)" fill-rule="evenodd" stroke="none" />
            <path d="M182.767 28.4569C178.228 24.566 174.985 21.9721 171.743 18.7297C167.204 14.8388 165.907 7.05693 169.149 3.16603C173.04 -1.37337 180.173 -0.724883 185.361 3.16603C195.088 12.2448 204.167 20.6751 213.894 29.7539C217.137 32.9963 217.785 38.1842 214.543 40.7781C204.816 49.8569 195.088 59.5842 185.361 68.663C180.822 72.5539 173.688 72.5539 170.446 69.3115C166.555 65.4206 167.204 58.2872 171.743 53.7478C174.337 51.1539 176.931 49.2085 178.876 46.6145C178.876 45.966 178.228 45.3175 178.228 45.3175C172.391 46.6145 165.907 47.9115 160.07 49.2085C86.143 68.0145 32.9672 127.027 21.2945 202.251C18.0521 224.948 19.349 246.996 25.1854 269.693C27.1308 276.178 27.1308 283.311 31.6702 289.796C33.6157 293.039 31.0218 300.172 26.4824 300.82C22.5914 302.117 18.052 301.469 13.5127 301.469C12.8642 301.469 11.5672 299.524 10.9187 298.227C1.83993 272.287 -1.4025 245.051 0.542958 217.814C5.73084 151.669 37.5066 101.087 90.6824 62.8266C115.973 44.669 145.804 34.2933 176.931 29.7539C178.228 29.1054 180.173 29.1054 182.767 28.4569L182.767 28.4569Z" id="Shape" fill="url(#gradient_2)" fill-rule="evenodd" stroke="none" />
          </g>
        </g>
      </g>
    </g>
  </g>
</svg>